<svg width="45" height="42" viewBox="0 0 45 42" fill="none" xmlns="http://www.w3.org/2000/svg">
<path fill-rule="evenodd" clip-rule="evenodd" d="M43.3495 11.1111C43.004 10.7777 42.428 10.7777 42.0824 11.1111C41.7369 11.4444 41.7369 11.9999 42.0824 12.3333C43.5799 13.7777 43.5799 16.1111 42.0824 17.5555C40.585 18.9999 38.166 18.9999 36.6685 17.5555C35.2862 15.6666 33.5583 14.1111 31.4849 12.9999C33.5583 8.22216 31.2545 2.77772 26.3013 0.77772C21.3481 -1.22228 15.7038 0.999941 13.6303 5.77772C13.1696 6.77772 12.9392 7.77772 12.9392 8.77772C12.0177 8.5555 11.2113 8.44439 10.6354 8.44439C9.71385 8.44439 8.90751 8.99994 8.79232 9.88883C8.67713 10.2222 8.79232 10.7777 9.0227 12.6666L9.25308 14.4444C7.52522 15.7777 6.14293 17.4444 5.10622 19.2222L2.45683 19.7777C1.18973 19.9999 0.153015 21.1111 0.153015 22.4444V28.1111C0.153015 29.4444 1.07454 30.5555 2.45683 30.7777L5.10622 31.3333C5.68217 32.3333 6.25812 33.2222 7.06446 34.1111C6.02774 36.4444 6.83408 39.2222 8.90751 40.7777C10.1746 41.7777 11.6721 42.2222 13.1696 42.2222C14.8974 42.2222 16.6253 41.5555 18.0076 40.4444L18.6987 39.8888C21.0025 40.2222 23.4215 40.1111 25.8405 39.6666L26.7621 40.5555C28.0292 41.6666 29.6418 42.3333 31.3697 42.3333H31.6001C33.4431 42.3333 35.0558 41.5555 36.3229 40.3333C38.2811 38.3333 38.5115 35.4444 36.8989 33.1111C38.6267 30.7777 39.5482 28.1111 39.5482 25.4444V24.7777C39.433 23.4444 39.0875 22.1111 38.5115 20.7777C40.3546 21.1111 42.3128 20.5555 43.6951 19.3333C45.8837 17.2222 45.8837 13.7777 43.6951 11.6666L43.3495 11.1111ZM22.5 1.77772C26.8773 1.77772 30.333 5.11105 30.333 9.33327C30.333 11.8888 29.0659 14.2222 26.8773 15.6666C26.7621 15.6666 26.7621 15.7777 26.6469 15.7777H18.3531C18.3531 15.7777 18.238 15.7777 18.238 15.6666C16.1645 14.3333 14.8974 12.2222 14.667 9.88883C14.667 9.66661 14.667 9.5555 14.667 9.33327C14.667 5.11105 18.238 1.77772 22.5 1.77772ZM34.8254 32.1111C34.7102 32.3333 34.4798 32.6666 34.7102 33.2222C34.7102 33.2222 34.7102 33.3333 34.8254 33.3333C36.0925 34.9999 36.0925 37.2222 34.595 38.6666C33.6735 39.5555 32.5216 40.111 31.1393 40.111H30.9089C29.6418 40.111 28.4899 39.6666 27.5684 38.8888L26.4165 37.7777C26.1861 37.5555 25.9557 37.4444 25.6102 37.4444C25.495 37.4444 25.495 37.4444 25.3798 37.4444C23.076 37.9999 20.657 37.9999 18.238 37.6666H18.1228C17.7772 37.6666 17.5468 37.7777 17.3164 37.9999L16.3949 38.7777C15.4734 39.5555 14.3215 40.111 13.0544 40.111C11.7873 40.2222 10.6354 39.7777 9.71384 39.1111C8.21636 37.8888 7.7556 35.8888 8.56194 34.1111C8.67713 33.8888 8.79232 33.6666 8.67713 33.3333C8.67713 33.2222 8.56194 32.9999 8.44675 32.8888C7.64041 31.9999 6.83408 30.9999 6.25812 29.8888C6.25812 29.7777 6.14293 29.6666 6.02774 29.6666C5.79736 29.4444 5.68217 29.3333 5.3366 29.3333L2.34164 28.7777C1.88088 28.6666 1.5353 28.3333 1.5353 27.8888V22.2222C1.5353 21.7777 1.88088 21.3333 2.34164 21.3333L5.3366 20.7777C5.56698 20.7777 5.79736 20.6666 6.02774 20.4444C6.14293 20.3333 6.14293 20.3333 6.25812 20.2222C7.17965 18.4444 8.56194 16.7777 10.405 15.4444C10.405 15.4444 10.405 15.4444 10.5202 15.3333C10.7506 15.1111 10.8658 14.8888 10.8658 14.5555V14.4444L10.6354 12.3333C10.5202 11.6666 10.405 10.4444 10.405 10.1111C10.7506 10.1111 11.4417 10.1111 12.824 10.5555C13.0544 12.5555 13.9759 14.3333 15.4734 15.7777H14.5519C14.0911 15.7777 13.6303 16.2222 13.6303 16.6666C13.6303 17.1111 14.0911 17.5555 14.5519 17.5555H30.333C30.7937 17.5555 31.2545 17.1111 31.2545 16.6666C31.2545 16.2222 30.7937 15.7777 30.333 15.7777H29.4115C29.757 15.4444 30.2178 14.9999 30.4482 14.5555C32.5216 15.7777 34.2495 17.4444 35.5166 19.3333L36.2077 20.5555C36.8989 21.8888 37.2444 23.2222 37.3596 24.4444V24.9999C37.3596 27.5555 36.4381 29.8888 34.8254 31.9999V32.1111Z" fill="#FCFDFF"/>
<path fill-rule="evenodd" clip-rule="evenodd" d="M12.7088 20.6666C11.4417 20.6666 10.405 21.6666 10.405 22.8888C10.405 24.1111 11.4417 25.1111 12.7088 25.1111C13.9759 25.1111 15.0126 24.1111 15.0126 22.8888C15.0126 21.6666 13.9759 20.6666 12.7088 20.6666ZM12.7088 23.4444C12.4784 23.4444 12.248 23.2222 12.248 23C12.248 22.7777 12.4784 22.5555 12.7088 22.5555C12.9392 22.5555 13.1696 22.7777 13.1696 23C13.1696 23.2222 12.9392 23.4444 12.7088 23.4444Z" fill="#FCFDFF"/>
<path fill-rule="evenodd" clip-rule="evenodd" d="M22.5 4C19.3899 4 16.9709 6.33333 16.9709 9.33333C16.9709 12.2222 19.5051 14.6667 22.5 14.6667C25.6102 14.6667 28.0292 12.3333 28.0292 9.33333C28.0292 6.33333 25.6102 4 22.5 4ZM22.5 12.8889C20.4266 12.8889 18.8139 11.3333 18.8139 9.33333C18.8139 7.33333 20.4266 5.77778 22.5 5.77778C24.5734 5.77778 26.1861 7.33333 26.1861 9.33333C26.1861 11.3333 24.5734 12.8889 22.5 12.8889Z" fill="#FCFDFF"/>
</svg>
