<svg width="49" height="49" viewBox="0 0 49 49" fill="none" xmlns="http://www.w3.org/2000/svg">
<path fill-rule="evenodd" clip-rule="evenodd" d="M49 24.5C49 17.9237 46.4211 11.8632 41.7789 7.22105C37.1368 2.57895 31.0763 0 24.5 0C17.9237 0 11.8632 2.57895 7.22105 7.22105C2.57895 11.8632 0 17.9237 0 24.5C0 31.0763 2.57895 37.1368 7.22105 41.7789C11.8632 46.4211 17.9237 49 24.5 49C26.95 49 29.4 48.6132 31.85 47.8395C32.7526 47.5816 33.6553 47.1947 34.5579 46.8079C34.6868 46.8079 34.8158 46.6789 34.8158 46.55L46.6789 34.6868C46.8079 34.5579 46.8079 34.5579 46.9368 34.429C47.1947 33.7842 47.4526 33.0105 47.7105 32.3658C48.6132 29.7868 49 27.2079 49 24.5ZM1.93421 24.5C1.93421 12.1211 11.9921 1.93421 24.5 1.93421C36.8789 1.93421 47.0658 11.9921 47.0658 24.5C47.0658 26.6921 46.8079 28.7553 46.1632 30.8184C45.0026 30.4316 43.8421 30.1737 42.5526 30.1737C42.6816 29.7868 42.6816 29.5289 42.6816 29.2711C42.8105 28.7553 42.5526 28.2395 42.0368 28.1105C41.5211 27.9816 41.0053 28.2395 40.8763 28.7553C40.7474 29.2711 40.6184 29.6579 40.4895 30.1737C40.2316 30.1737 40.1026 30.1737 39.8447 30.3026C37.2658 30.6895 35.0737 31.9789 33.2684 33.7842C31.4632 35.5895 30.3026 37.7816 29.9158 40.2316C29.9158 40.3605 29.9158 40.4895 29.7868 40.6184C28.1105 41.1342 26.3053 41.5211 24.5 41.5211C15.0868 41.5211 7.47895 33.9132 7.47895 24.5C7.47895 15.0868 15.0868 7.47895 24.5 7.47895C32.2368 7.47895 39.0711 12.7658 41.0053 20.2447C41.1342 20.7605 41.65 21.0184 42.1658 20.8895C42.6816 20.7605 42.9395 20.2447 42.8105 19.7289C40.6184 11.3474 33.1395 5.54474 24.5 5.54474C14.0553 5.54474 5.54474 14.0553 5.54474 24.5C5.54474 34.9447 14.0553 43.4553 24.5 43.4553C26.3053 43.4553 27.9816 43.1974 29.6579 42.6816C29.6579 43.9711 29.9158 45.1316 30.3026 46.2921C28.3684 46.8079 26.4342 47.0658 24.5 47.0658C12.1211 47.0658 1.93421 37.0079 1.93421 24.5ZM45.1316 33.5263L33.5263 45.1316C33.0105 45.3895 32.6237 45.5184 32.1079 45.6474C30.9474 41.9079 31.85 37.7816 34.6868 34.9447C36.6211 33.0105 39.3289 31.85 42.1658 31.85C43.3263 31.85 44.4868 32.1079 45.6474 32.4947C45.5184 32.7526 45.3895 33.1395 45.2605 33.3974L45.1316 33.5263Z" fill="#FCFDFF"/>
<path fill-rule="evenodd" clip-rule="evenodd" d="M41.5211 24.5C41.5211 24.8869 41.7789 25.2737 42.1658 25.4027C42.5526 25.5316 42.9395 25.4027 43.1974 25.1448C43.4553 24.8869 43.4553 24.3711 43.3263 24.1132C43.0684 23.7264 42.6816 23.5974 42.2947 23.5974C41.9079 23.7264 41.5211 24.1132 41.5211 24.5Z" fill="#FCFDFF"/>
<path fill-rule="evenodd" clip-rule="evenodd" d="M31.3342 19.6L27.4658 18.5685L25.2737 15.2158C25.1447 14.9579 24.7579 14.829 24.5 14.829C24.1132 14.829 23.8553 14.9579 23.7263 15.2158L21.5342 18.5685L17.6658 19.6C17.4079 19.729 17.15 19.8579 17.0211 20.2448C16.8921 20.5027 17.0211 20.8895 17.15 21.1474L19.7289 24.2421L19.4711 28.2395C19.4711 28.6263 19.6 28.8842 19.8579 29.0132C20.1158 29.1421 20.5026 29.2711 20.7605 29.1421L24.5 27.7237L28.2395 29.1421C28.3684 29.1421 28.4974 29.1421 28.6263 29.1421C28.8842 29.1421 29.0132 29.1421 29.1421 29.0132C29.4 28.8842 29.5289 28.4974 29.5289 28.2395L29.2711 24.2421L31.85 21.1474C32.1079 20.8895 32.1079 20.5027 31.9789 20.2448C31.85 19.9869 31.5921 19.729 31.3342 19.6ZM27.5947 23.3395C27.4658 23.4685 27.3368 23.7263 27.3368 23.9842L27.4658 26.95L24.7579 25.9185C24.6289 25.9185 24.5 25.9185 24.3711 25.9185C24.2421 25.9185 24.1132 25.9185 23.9842 25.9185L21.2763 26.95L21.4053 23.9842C21.4053 23.7263 21.4053 23.4685 21.1474 23.3395L19.3421 21.0185L22.1789 20.2448C22.4368 20.2448 22.5658 19.9869 22.6947 19.8579L24.2421 17.4079L25.7895 19.8579C25.9184 20.1158 26.1763 20.2448 26.3053 20.2448L29.1421 21.0185L27.3368 23.3395H27.5947Z" fill="#FCFDFF"/>
<path fill-rule="evenodd" clip-rule="evenodd" d="M30.4316 32.1079H18.4395C17.9237 32.1079 17.5368 32.4948 17.5368 33.0105C17.5368 33.5263 17.9237 33.9132 18.4395 33.9132H30.4316C30.9474 33.9132 31.3342 33.5263 31.3342 33.0105C31.3342 32.4948 30.9474 32.1079 30.4316 32.1079Z" fill="#FCFDFF"/>
</svg>
