<svg width="104" height="33" viewBox="0 0 104 33" fill="none" xmlns="http://www.w3.org/2000/svg">
<path d="M0.981807 31.5003L1 32.5H104V32V31.5C92.8248 31.5 87.7757 24.6627 82.3166 17.2703C82.0545 16.9153 81.7913 16.559 81.5266 16.2021C78.6515 12.327 75.579 8.39217 71.3817 5.43501C67.1693 2.46719 61.8492 0.5 54.5 0.5C46.7845 0.5 41.1891 2.40196 36.7284 5.28828C32.2812 8.16585 28.9883 12.0065 25.8632 15.8213C25.6018 16.1404 25.3416 16.4593 25.0819 16.7776C19.1162 24.0878 13.4371 31.0468 0.981807 31.5003Z" fill="white" stroke="#ECECEC"/>
<rect x="1" y="32" width="103" height="1" fill="white"/>
</svg>
