<svg width="140" height="73" viewBox="0 0 140 73" fill="none" xmlns="http://www.w3.org/2000/svg">
<path fill-rule="evenodd" clip-rule="evenodd" d="M59.812 2.30549V7.96473C57.9247 8.84501 58.1488 7.89627 56.9984 9.383L47.5284 21.5583C46.8803 22.3728 46.2634 23.1681 45.6355 23.9923C45.2927 24.4418 45.0235 24.773 44.7029 25.1824C44.417 25.5461 43.9847 26.0461 43.762 26.4624C48.6594 26.015 51.8137 25.7743 56.7423 26.4084C58.0794 26.5806 59.5692 26.9582 60.8008 27.0674C61.0111 26.6512 61.6217 25.9756 61.9679 25.5219L70.4394 14.6405C72.0319 12.5881 73.6188 10.479 75.2626 8.43011C75.7899 7.77249 79.9781 2.44586 80.0662 2.17894L66.4219 6.09284L66.4087 2.05724L64.096 1.08361C64.0377 2.89119 64.1182 4.65936 64.0919 6.38396C64.0842 6.83344 64.1626 6.76221 63.7657 6.82237L63.763 0.961212C63.1607 1.06909 62.3447 1.38441 61.7452 1.57319C61.4364 1.67 61.1283 1.76819 60.7779 1.8816C60.4462 1.98809 60.0008 2.01921 59.8134 2.30549H59.812ZM53.9543 57.5937L57.5021 57.6041C57.5292 56.6706 57.4542 56.2654 58.2744 55.9791C58.9225 55.7537 59.8224 55.7315 60.5246 55.8767C61.9422 56.1699 62.3932 57.2549 62.3419 58.8564C60.1652 59.1538 58.3084 58.7084 55.5926 60.0029C51.0879 62.15 52.2127 68.3258 57.2759 68.7594C58.5443 68.868 59.6511 68.6232 60.5822 68.1128C61.0791 67.8404 61.3247 67.6364 61.6952 67.2706C62.31 66.6607 62.4266 66.355 62.6333 66.149C62.8124 68.9917 63.7893 68.4282 67.9734 68.4282L68.0074 65.2341C65.9202 65.2341 66.152 65.3123 66.1534 63.2848C66.1534 59.5687 66.6967 55.6036 63.8435 53.8548C62.1906 52.8417 59.404 52.6378 57.2329 53.0831C53.9967 53.7469 53.8579 55.1417 53.955 57.5958L53.9543 57.5937ZM62.3801 61.4814C60.8799 61.4814 59.0897 61.5049 57.8678 62.0975C54.6572 63.6547 57.9844 67.6039 60.8959 65.1173C61.7965 64.3469 62.3801 63.1907 62.3801 61.4814ZM36.4146 56.432L38.2526 56.45C38.3512 57.4561 38.2707 63.6769 38.2707 65.2321C38.2707 69.0242 38.134 68.4254 44.0007 68.4254C46.9753 68.4254 49.3734 68.2242 50.5793 66.1919C51.6465 64.3946 51.3676 61.4129 48.5012 60.5036L49.3248 59.8584C49.5573 59.6447 49.789 59.3909 49.9701 59.0597C51.0428 57.0869 50.4079 54.4177 47.7199 53.5588C46.1822 53.0672 44.0187 53.22 42.3 53.22C40.369 53.22 38.3734 53.1716 36.45 53.2262L36.4146 56.432ZM42.105 61.8202L42.069 65.1532C42.078 65.6338 42.0919 65.7977 42.5477 65.8537C43.6829 65.9941 46.0011 65.9422 46.6798 65.2742C47.6262 64.3449 47.4305 62.7413 46.337 62.1431C45.5418 61.7068 43.1549 61.7358 42.105 61.8202ZM42.0738 59.4262C42.6143 59.494 44.7098 59.4891 45.1838 59.3827C47.0718 58.9588 47.2529 56.2619 45.1609 55.8539C44.5634 55.7377 42.751 55.7467 42.1043 55.8021L42.0738 59.4262ZM78.1234 21.3715L80.731 21.3812L80.7338 18.4562L78.1595 18.4334L78.1234 21.3715ZM82.3401 21.3363L84.9393 21.3902L84.9477 18.4341L82.356 18.4382L82.3401 21.3363ZM78.1241 16.7343L80.7352 16.7544V13.8045L78.1241 13.8058V16.7343ZM82.3436 16.7537H84.9518V13.8024H82.3422L82.3436 16.7537ZM37.3048 7.58026C37.0883 7.41499 36.6782 7.13839 36.4506 6.88876L34.0845 4.66904C34.4571 5.88746 35.5521 7.36451 35.8865 8.56703L33.2789 7.07892C33.4025 7.16951 33.6058 7.40462 33.7612 7.53531L35.3051 8.88304C35.4799 9.07182 35.3509 8.88304 35.4723 9.11815L31.207 8.56703C31.5755 8.88097 33.7563 9.99705 34.4717 10.385L34.9533 10.7238C34.58 10.7757 32.7356 10.8759 32.4276 11.0329C33.528 11.2003 33.902 11.2328 34.9408 11.3718L31.1599 13.4566C31.8523 13.5375 34.1442 13.05 35.5229 13.0514C35.0983 13.2844 34.6958 13.6876 34.3343 14.0036L33.2713 14.9717C33.9763 14.628 35.2162 13.7242 35.8803 13.4995L35.8865 13.5064L34.0602 17.3823C34.3773 17.2281 34.6049 16.9826 34.8443 16.7157C35.0802 16.4515 37.098 14.7096 37.2729 14.4918L36.638 17.356C36.8156 16.9584 37.6559 15.0001 37.8946 14.684C38.0244 15.3617 38.1687 16.0463 38.2943 16.7475L38.771 18.8697C38.8528 18.2349 39.3712 15.0284 39.6071 14.6633L40.7645 17.3581L40.1698 14.4842C40.4522 14.6253 40.7686 14.9918 41.0184 15.2186L43.3915 17.4328L41.5257 13.4954L44.0867 14.9316C43.6191 14.4316 42.3465 13.263 42.0801 13.0092C43.4692 13.0238 45.1491 13.5451 46.2863 13.4497C45.7881 13.2478 44.9506 12.7389 44.4614 12.4657C43.9723 12.1912 42.826 11.7528 42.5311 11.3192C43.0334 11.2722 45.3093 10.9907 45.5085 11.0087L42.4825 10.7294C42.5956 10.5897 42.4818 10.6803 42.6858 10.5454C43.3769 10.0863 45.5709 9.10571 46.2357 8.58293L41.9704 9.1306C42.1217 8.85953 42.0086 9.01374 42.232 8.81528L44.1638 7.09413L41.5624 8.59469L43.3845 4.69186C42.8267 4.97883 40.5737 7.39632 40.1823 7.57957L40.8012 4.70915L39.5932 7.39079C39.2942 6.9095 38.9708 3.981 38.7162 3.1021L37.9113 7.39286L36.6727 4.69739C36.858 5.54379 37.1209 6.74907 37.3048 7.58026ZM38.6808 8.56357C40.0616 8.56357 41.1808 9.67896 41.1808 11.0544C41.1808 12.4304 40.0616 13.5458 38.6808 13.5458C37.3006 13.5458 36.1814 12.4304 36.1814 11.0544C36.1814 9.67896 37.3006 8.56357 38.6808 8.56357ZM40.7888 8.95496C40.2517 8.41974 39.5092 8.08851 38.6891 8.08851C37.8689 8.08851 37.1258 8.41974 36.5887 8.95496C36.051 9.49087 35.7186 10.2308 35.7186 11.0481C35.7186 11.8655 36.051 12.6054 36.5887 13.1413C37.1258 13.6765 37.8689 14.0078 38.6891 14.0078C39.5092 14.0078 40.2517 13.6765 40.7888 13.1413C41.3265 12.6054 41.6589 11.8655 41.6589 11.0481C41.6589 10.2308 41.3265 9.49087 40.7888 8.95496ZM103.004 24.4646L104.158 24.242C103.792 25.3491 102.46 25.8905 102.424 26.1533C102.779 26.2404 103.069 26.1457 103.429 26.1014L102.942 26.7867L105.944 30.5187C106.137 30.1695 106.117 29.5769 106.776 29.1537C107.458 28.7139 107.945 28.8889 108.749 28.8266C108.864 28.5597 108.895 28.3391 109.017 28.0805C109.144 27.8156 109.307 27.6234 109.407 27.4083C108.788 27.0764 107.123 26.5073 106.802 26.1021C107.292 26.0959 107.821 26.1657 108.229 26.0233C107.426 25.4348 107.648 26.0032 105.982 24.2793L107.215 24.6465C107.033 24.3332 106.789 24.1694 106.558 23.8969C105.924 23.1542 105.305 22.3618 105.024 21.3501C104.844 21.5486 104.725 21.9552 104.62 22.1744C104.466 22.5022 104.363 22.693 104.168 22.9938C103.686 23.7379 103.16 24.1777 103.004 24.4646ZM111.994 20.7658C112.496 20.7755 112.766 20.6379 113.193 20.5355C113.04 21.0389 112.306 21.7934 111.913 22.0679C111.667 22.2387 111.52 22.2767 111.336 22.5077L112.493 22.4136C111.804 23.6279 110.25 24.1445 109.772 24.5103C110.557 24.6486 110.94 24.5179 111.661 24.4038C111.176 25.5537 109.942 25.6506 109.425 25.8594C109.269 25.923 109.31 25.9085 109.246 25.9514L110.263 26.5004C112.247 24.6009 113.36 25.82 114.126 25.5392C114.663 25.3415 115.567 24.1189 118.012 24.5649C117.749 24.2288 116.846 23.5283 116.572 23.0934C117.032 23.2144 117.73 23.4682 118.236 23.4543C117.88 23.2538 116.878 22.3998 116.574 22.1363C116.145 21.7664 115.302 20.9878 115.056 20.6116L116.083 20.9442C115.942 20.5715 115.802 20.5341 115.471 20.1856C114.621 19.2901 114.53 18.5917 114.022 17.6755C113.861 17.8774 113.433 18.9617 113.183 19.3524C112.797 19.9505 112.368 20.3184 111.994 20.7672V20.7658ZM103 12.7956C103.537 12.8315 103.765 12.6483 104.202 12.586C103.33 13.9206 103.537 13.4857 102.553 14.4904L103.485 14.4261C103.204 14.9517 102.796 15.2856 102.324 15.6487C102.113 15.8105 101.873 15.9654 101.604 16.1175C101.347 16.262 101.023 16.345 100.785 16.5435C101.333 16.7565 102.095 16.5393 102.658 16.4446C102.301 17.3781 101.037 18.2252 99.7321 18.5018C100.493 18.9492 101.641 18.5115 102.24 18.1976C102.219 19.0675 101.51 19.8406 101.068 20.1614C100.235 20.7637 99.6335 20.8059 98.4678 20.6994L101.514 24.576C102.235 24.2337 103.31 22.9876 103.748 22.1529C104.049 21.5769 104.198 21.1143 104.401 20.4304C104.484 20.149 104.591 19.8122 104.677 19.5197C104.718 19.3849 104.756 19.2148 104.806 19.0557L105.017 18.638C105.207 19.4589 105.723 21.1952 106.099 21.8957C106.866 23.3285 107.239 23.3119 108.045 24.2648C108.77 24.179 109.579 23.4592 109.836 23.0692C108.803 23.0498 108.492 23.0968 107.547 22.8161C107.774 22.6619 108.173 22.5962 108.431 22.4994C109.21 22.2062 110.164 21.6371 110.605 21.0465L109.079 20.8937C109.6 20.4844 110.128 20.5127 110.745 19.9346C110.477 19.7666 109.111 19.6684 108.502 18.7452C109.313 18.9153 109.5 19.046 110.437 18.8856C110.024 18.5378 108.805 18.1471 108.26 16.8872C109.025 17.1091 109.389 17.3622 110.356 17.3719C110.101 17.0856 108.078 15.8852 107.561 15.1328C108.056 15.2483 108.676 15.5076 109.216 15.4896C108.576 15.0623 106.4 13.2098 106.143 12.7084L107.146 12.994C107.006 12.7084 106.767 12.5362 106.538 12.3087C105.629 11.4022 105.225 10.0413 105.008 9.75088C104.712 10.1582 104.477 10.9361 104.138 11.4416C103.729 12.0529 103.421 12.3613 103 12.7969V12.7956ZM28.2372 26.6373C25.817 26.8123 24.5549 28.8515 25.0121 30.832C25.2043 31.6645 25.5617 31.984 25.91 32.4667L29.8123 30.516C31.1453 29.895 32.5989 29.3162 34.0547 28.8121C36.9204 27.8198 40.4259 26.8538 43.6392 26.4956C42.851 25.0877 40.2593 24.0947 38.1631 24.3574C37.309 24.4639 36.8822 24.7433 36.2029 24.9176C35.5361 23.9785 35.5084 23.668 34.4856 23.0851C31.8718 21.5928 28.3656 23.2379 28.2372 26.6373ZM107.256 56.3089C108.129 56.3712 108.733 56.1409 108.878 56.7446C108.984 57.1878 108.743 59.0106 109.092 60.2692C109.962 63.41 113.81 63.6665 116.413 62.9141C117.081 62.7212 117.484 62.4481 118.064 62.2538L118.018 68.2899L121.804 68.2961L121.824 53.1087L118.048 53.0914L118.018 59.1717C116.945 59.7616 115.994 60.3349 114.353 60.0306C111.038 59.4158 113.964 54.3305 111.746 53.3016C111.115 53.0084 108.1 53.0022 107.268 53.1183L107.255 56.3096L107.256 56.3089ZM19.5166 56.311C21.7391 56.3414 21.3727 55.6098 21.3727 61.2898C21.3727 63.6236 21.3727 65.9574 21.3727 68.2919L25.1745 68.2961L25.1766 62.0193C27.3678 61.8561 27.295 62.1874 27.9153 63.2751C28.4246 64.1665 28.8652 65.0128 29.3592 65.9035C29.8297 66.7527 30.2814 67.8888 31.1716 68.1689C31.7871 68.3618 34.3746 68.3341 35.1441 68.2836L35.1663 65.1214C32.8349 64.9188 33.5537 65.6483 31.2452 61.6556C30.7852 60.8604 30.4035 60.7726 30.024 60.3833C30.0136 60.3715 29.9928 60.3494 29.9789 60.3307C30.6221 60.0278 30.9926 59.3349 31.4006 58.705C31.8156 58.0619 32.1785 57.508 32.6087 56.8573C32.975 56.302 34.9324 53.4516 35.0088 53.0921L31.0162 53.09C30.7283 53.1875 30.024 54.4433 29.8255 54.7627C29.4578 55.354 29.0872 55.9314 28.707 56.5302C27.5892 58.2963 27.5947 59.0507 25.187 58.7921C25.0933 57.3987 25.5173 54.4467 24.7075 53.5906C23.972 52.812 20.8815 53.081 19.552 53.0921L19.5166 56.3096V56.311ZM125.446 57.4492L128.992 57.4776C129.034 56.4645 128.876 56.1886 129.752 55.8581C130.4 55.6133 131.283 55.5988 132.013 55.7474C133.426 56.0351 133.904 57.1076 133.833 58.7416C131.235 58.8924 129.179 58.8025 127.012 59.9116C122.547 62.1971 123.812 68.2553 128.819 68.6335C132.651 68.924 133.899 66.1441 134.123 66.0045C134.262 67.3342 134.244 68.0969 135.657 68.2719C136.273 68.3486 138.89 68.3576 139.485 68.2719L139.499 65.1435C138.974 65.0391 138.087 65.2535 137.79 64.896C137.524 64.5731 137.645 63.5365 137.645 63.0704C137.645 59.3419 138.188 55.4812 135.315 53.7144C132.971 52.2719 127.635 52.4109 126.056 54.2164C125.323 55.0559 125.402 56.1063 125.442 57.4499L125.446 57.4492ZM133.873 61.352C132.22 61.352 128.6 61.3382 128.128 63.3028C127.67 65.2099 130.133 66.7471 132.382 65.0073C133.271 64.3186 133.871 63.0047 133.873 61.352ZM93.1194 57.4554L96.6672 57.4755C96.7054 56.4597 96.5506 56.1789 97.4298 55.8574C98.0813 55.6188 98.9764 55.6015 99.6752 55.744C101.098 56.0358 101.574 57.1035 101.508 58.7354C98.8397 58.9505 97.0634 58.7451 94.748 59.8778C90.3384 62.0366 91.3126 68.0831 96.3577 68.619C97.563 68.747 98.7731 68.5139 99.6842 68.0202C100.157 67.7636 100.479 67.5112 100.817 67.1994C101.41 66.6517 101.402 66.4519 101.753 66.1158C101.768 66.102 101.792 66.0785 101.814 66.0632C101.816 67.3888 102.076 68.1509 103.411 68.2795C104.049 68.341 106.586 68.3611 107.163 68.2677L107.177 65.1463C106.66 65.0288 105.765 65.2535 105.468 64.9001C105.2 64.5814 105.322 63.5317 105.322 63.0683C105.322 59.393 105.862 55.4487 102.996 53.7179C101.309 52.6993 98.5768 52.4988 96.3834 52.9552C93.1416 53.628 93.041 54.9771 93.1208 57.4547L93.1194 57.4554ZM101.548 61.3541C99.9208 61.3424 96.253 61.3507 95.7971 63.3007C95.3426 65.2431 97.8371 66.7381 100.057 65.0011C100.941 64.3089 101.547 63.0027 101.548 61.3541ZM22.7841 39.2399L27.9077 37.6025C29.7596 37.0845 31.5561 36.6655 33.4871 36.2962C37.5026 35.5273 41.8296 35.1539 46.0685 35.2064C50.2248 35.2583 54.4775 35.7153 58.3945 36.5583C63.4861 37.6543 64.5797 38.3188 68.9955 39.6313C82.5247 43.6531 96.534 42.8385 109.513 37.2187L112.961 35.5694C113.288 35.4028 113.803 35.0695 114.073 34.9734C109.939 36.5092 108.296 37.2851 103.716 38.3866C91.3514 41.3615 79.2634 40.5247 67.5501 36.5756C65.8342 35.9968 64.2397 35.3371 62.4696 34.7804C50.2463 30.9343 36.3438 32.2198 25.0059 38.0125C24.2905 38.379 23.3517 38.8271 22.7841 39.2385V39.2399ZM0.0326121 64.9963L0 68.274C0.654324 68.3514 2.19126 68.3314 2.85183 68.2774C4.66215 68.1315 4.75443 66.8052 5.39002 65.0772C5.62872 64.4265 6.02631 63.5095 6.16786 62.8837L13.2398 62.8713C13.5764 63.1278 14.5748 66.4048 14.8968 67.0943C15.2319 67.8148 15.6101 68.1689 16.5892 68.2691C17.2456 68.3362 18.8394 68.3459 19.4868 68.276L19.5027 64.9942C18.0026 64.8925 18.2815 64.7985 17.8028 63.5192C17.5127 62.7427 17.2393 61.9647 16.943 61.1598C16.5309 60.0423 12.0478 47.5552 11.7945 47.1521L7.71034 47.1279C6.00618 52.1973 3.63729 58.2133 1.73052 63.4618C1.12547 65.129 1.29685 64.8981 0.0339999 64.9949L0.0326121 64.9963ZM7.13789 59.6447L12.4377 59.6482L9.7538 51.2402C9.62682 51.4456 9.29931 52.9427 9.18413 53.3555L7.79499 57.564C7.64026 58.0169 7.17536 59.2333 7.13789 59.6447ZM61.5696 27.2216L63.4174 27.7209C63.7033 27.5259 65.2992 25.4673 65.6468 25.0358L79.0379 8.46399C79.4189 7.98824 79.7714 7.56159 80.1336 7.09828L81.2604 5.71251C81.6053 5.94417 86.5692 12.1933 86.9516 12.669L102.541 31.966C102.975 32.5075 103.517 33.2661 103.985 33.7155C105.143 33.6657 107.602 32.9687 108.766 32.6658C110.27 32.2744 111.828 31.7807 113.234 31.2731C114.591 30.7836 120.786 28.3032 121.324 27.6448C120.67 26.8842 119.611 26.1941 118.189 26.0392C116.454 25.849 115.485 26.4513 114.446 27.1428C113.584 26.9603 112.641 26.2943 111 27.2631C110.203 27.7334 109.486 28.6579 109.391 30.007C108.973 30.0554 108.571 29.8943 108.068 30.025C106.554 30.4205 106.096 32.1133 106.57 33.0365C106.323 32.8629 106.022 32.4031 105.827 32.1666C105.563 31.8457 105.312 31.5366 105.028 31.1826L93.95 17.4749C91.826 14.9053 89.7687 12.2686 87.6496 9.68449L81.7364 2.35528C81.4838 2.03511 81.5158 2.01022 81.2764 1.88022L71.4136 14.5126C70.5012 15.7082 61.7584 26.8296 61.5675 27.2216H61.5696ZM18.4314 39.9245C19.2037 39.5165 20.0544 38.8845 20.8718 38.3866C33.2977 30.8174 48.9799 28.8162 62.965 33.4327C65.0432 34.1187 66.8445 34.8793 68.8956 35.5798C77.4365 38.4979 87.4526 39.5746 97.1078 38.2545C103.129 37.4317 110.27 35.3786 115.543 32.7177C116.657 32.1541 119.968 30.5021 120.745 29.8604C120.018 30.0928 118.789 30.7538 118.01 31.1065C106.339 36.3979 92.497 37.6108 79.9663 34.8717C77.7758 34.3932 75.7309 33.7978 73.6597 33.1174C71.5267 32.4169 69.8031 31.612 67.7854 30.8334C59.3582 27.5805 49.2818 26.5896 39.7743 28.8287C33.399 30.3299 28.002 32.7564 22.9451 36.2983C21.9834 36.9718 19.0316 39.1473 18.4314 39.9245ZM72.8354 50.4415H74.7533C75.0551 53.7365 74.4771 58.9401 73.2545 62.103C72.9665 62.8478 72.2095 64.5025 71.7529 64.9762C69.6012 65.0675 69.4222 65.4008 69.4243 67.561C69.4264 69.0201 69.3022 71.0856 69.4486 72.47L72.936 72.4693C73.2482 68.9904 72.1637 68.2857 74.3043 68.2961H85.5312C87.6906 68.2919 86.7962 68.3258 87.0203 72.4375L90.5278 72.4693C90.6465 70.9466 90.5424 69.0277 90.5452 67.4746C90.5479 65.2279 90.2294 65.0509 88.0611 64.9721C88.0611 63.735 88.1582 49.3905 88.0146 48.5551C87.7787 47.1873 86.7663 47.1265 85.3605 47.1272H72.8465L72.8354 50.4395V50.4415ZM75.8072 64.9631L84.1365 64.9866C84.2656 64.1865 84.1684 54.3949 84.1698 52.3909C84.1698 51.2409 84.3704 50.5363 83.5745 50.4498C83.0728 50.3952 78.8638 50.4021 78.5258 50.4886C78.4259 53.3936 78.5023 55.7613 77.9902 58.6151C77.535 61.148 76.8744 63.0365 75.8079 64.9644L75.8072 64.9631Z" fill="white"/>
</svg>
