<svg width="107" height="32" viewBox="0 0 107 32" fill="none" xmlns="http://www.w3.org/2000/svg">
<path fill-rule="evenodd" clip-rule="evenodd" d="M106.881 31.3599C72.4177 31.3599 80.734 0 52.5797 0C23.4671 0 35.6164 31.3599 0.0128174 31.3599H106.892H106.881Z" fill="#FBFBFB"/>
<path fill-rule="evenodd" clip-rule="evenodd" d="M52.9998 12C49.7002 12 47.0005 14.5147 47.0005 17.5882V25.4118C47.0005 28.4853 49.7002 31 52.9998 31C56.2995 31 58.9992 28.4853 58.9992 25.4118V17.5882C58.9992 14.5147 56.2995 12 52.9998 12ZM57.7565 25.4118C57.7565 27.8466 55.6139 29.8424 52.9998 29.8424C50.3858 29.8424 48.2432 27.8466 48.2432 25.4118V17.5882C48.2432 15.1534 50.3858 13.1576 52.9998 13.1576C55.6139 13.1576 57.7565 15.1534 57.7565 17.5882V25.4118Z" fill="#565656"/>
<path fill-rule="evenodd" clip-rule="evenodd" d="M53 15.792C52.6571 15.792 52.4 16.0315 52.4 16.3508V18.9853C52.4 19.3046 52.6571 19.5441 53 19.5441C53.3428 19.5441 53.5999 19.3046 53.5999 18.9853V16.3508C53.5999 16.0315 53.3428 15.792 53 15.792Z" fill="#565656"/>
</svg>
