<svg width="11" height="11" viewBox="0 0 11 11" fill="none" xmlns="http://www.w3.org/2000/svg">
<path fill-rule="evenodd" clip-rule="evenodd" d="M10.7536 8.70032L9.05474 6.99746C8.71646 6.65975 8.15608 6.67001 7.80582 7.02106L6.94994 7.87871C6.89593 7.84876 6.83993 7.81757 6.78101 7.78446C6.24052 7.48437 5.50089 7.07302 4.7224 6.29219C3.94174 5.50986 3.53098 4.76731 3.23049 4.22535C3.19887 4.16788 3.16849 4.1125 3.13845 4.05995L3.7129 3.48513L3.99533 3.20181C4.34601 2.85026 4.35558 2.28878 4.01805 1.94999L2.31935 0.247042C1.98174 -0.0911623 1.42119 -0.0809869 1.07043 0.270646L0.591689 0.753223L0.604754 0.766318C0.44423 0.971576 0.310084 1.20836 0.210224 1.46374C0.118187 1.70678 0.0608505 1.93873 0.0347205 2.17118C-0.189632 4.03502 0.660177 5.7383 2.96636 8.04977C6.15431 11.2447 8.72329 11.0033 8.83413 10.9916C9.07546 10.9626 9.30688 10.9049 9.54189 10.8133C9.79445 10.7145 10.0306 10.5803 10.2352 10.4195L10.2457 10.4289L10.7308 9.95289C11.0807 9.60134 11.0908 9.03969 10.7534 8.70049L10.7536 8.70032Z" fill="white"/>
</svg>
