<svg width="27" height="26" viewBox="0 0 27 26" fill="none" xmlns="http://www.w3.org/2000/svg">
<path d="M13.5 26C20.9558 26 27 20.1797 27 13C27 5.8203 20.9558 0 13.5 0C6.04416 0 0 5.8203 0 13C0 20.1797 6.04416 26 13.5 26Z" fill="#0072B1"/>
<path fill-rule="evenodd" clip-rule="evenodd" d="M19.1489 15.6738L17.4734 14.0603C16.8989 13.5071 15.8457 13.6915 15.6543 14.4752C15.4628 14.9823 14.8883 15.2589 14.3617 15.1667C13.1649 14.8901 11.5851 13.4149 11.25 12.1702C11.0585 11.6631 11.4415 11.0638 11.9681 10.9255C12.734 10.695 12.9734 9.72695 12.3989 9.17376L10.7234 7.56028C10.2447 7.14539 9.5266 7.14539 9.09575 7.56028L7.94681 8.66667C6.79787 9.81915 8.04255 12.8617 10.867 15.5355C13.6436 18.2092 16.8032 19.4539 18 18.3475L19.1489 17.2411C19.5798 16.7801 19.5798 16.0887 19.1489 15.6738Z" fill="#FEFEFE"/>
</svg>
