<svg width="28" height="27" viewBox="0 0 28 27" fill="none" xmlns="http://www.w3.org/2000/svg">
<path fill-rule="evenodd" clip-rule="evenodd" d="M13.5238 0C20.9524 0 27.0476 5.82363 27.0476 13.0229C27.0476 20.1764 21 26.0459 13.5238 26.0459C6.09524 26.0459 0 20.2222 0 13.0229C0 5.86949 6.04762 0 13.5238 0Z" fill="#2197D5"/>
<path fill-rule="evenodd" clip-rule="evenodd" d="M5.71429 13.3439L8.95238 14.4903L10.1905 18.3422C10.2857 18.5714 10.5714 18.6631 10.8095 18.5256L12.619 17.1041C12.8095 16.9665 13.0952 16.9206 13.2857 17.1041L16.5238 19.351C16.7619 19.5344 17.0476 19.3968 17.1429 19.1217L19.5238 8.1164C19.5714 7.84127 19.2857 7.61199 19 7.7037L5.7619 12.6102C5.42857 12.7478 5.42857 13.1605 5.7619 13.2981L5.71429 13.3439ZM10 13.8942L16.2857 10.1799C16.381 10.134 16.5238 10.2716 16.4286 10.3633L11.2381 14.9947C11.0476 15.1781 10.9524 15.3616 10.9048 15.6367L10.7143 16.9206C10.7143 17.1041 10.4286 17.1041 10.381 16.9206L9.71429 14.6279C9.61905 14.3527 9.7619 14.0776 10 13.94V13.8942Z" fill="white"/>
</svg>
