<svg width="15" height="13" viewBox="0 0 15 13" fill="none" xmlns="http://www.w3.org/2000/svg">
<path fill-rule="evenodd" clip-rule="evenodd" d="M0.7141 6.34386L3.9522 7.49024L5.19029 11.3421C5.28553 11.5714 5.57124 11.6631 5.80934 11.5255L7.61886 10.104C7.80934 9.96643 8.09505 9.92058 8.28553 10.104L11.5236 12.3509C11.7617 12.5343 12.0474 12.3968 12.1427 12.1216L14.5236 1.11634C14.5712 0.841211 14.2855 0.611933 13.9998 0.703644L0.761719 5.61017C0.428385 5.74774 0.428385 6.16044 0.761719 6.298L0.7141 6.34386ZM4.99981 6.89412L11.2855 3.17983C11.3808 3.13398 11.5236 3.27155 11.4284 3.36326L6.23791 7.99465C6.04743 8.17807 5.9522 8.36149 5.90458 8.63663L5.7141 9.92058C5.7141 10.104 5.42839 10.104 5.38077 9.92058L4.7141 7.62781C4.61886 7.35268 4.76172 7.07754 4.99981 6.93998V6.89412Z" fill="white"/>
</svg>
