<svg width="28" height="28" viewBox="0 0 28 28" fill="none" xmlns="http://www.w3.org/2000/svg">
<path fill-rule="evenodd" clip-rule="evenodd" d="M13.5235 0C20.9896 0 27.047 6.05739 27.047 13.5235C27.047 20.9896 20.9896 27.047 13.5235 27.047C6.05739 27.047 0 20.9896 0 13.5235C0 6.05739 6.05739 0 13.5235 0Z" fill="#4CAF50"/>
<path fill-rule="evenodd" clip-rule="evenodd" d="M18.36 8.45217C17.0922 7.18435 15.4017 6.48 13.6174 6.48C11.833 6.48 10.1426 7.18435 8.87478 8.45217C7.60696 9.72 6.90261 11.4104 6.90261 13.1948C6.90261 14.2748 7.18435 15.4017 7.70087 16.3878L6.90261 20.0504L10.6122 19.2052C11.5513 19.6748 12.5843 19.9096 13.6174 19.9096C15.4017 19.9096 17.0922 19.2052 18.36 17.9374C19.6278 16.6696 20.3322 14.9791 20.3322 13.1948C20.3322 11.4104 19.6278 9.72 18.313 8.45217L18.36 8.49913H18.407L18.36 8.45217ZM11.7861 10.2365H11.5043C11.3635 10.2365 11.2226 10.2835 11.1287 10.4243C10.9878 10.6122 10.6122 10.9409 10.6122 11.6922C10.6122 12.4435 11.2226 13.1948 11.2696 13.2887C11.3165 13.4296 12.3026 15.0261 13.9461 15.5896C15.2609 16.1061 15.4957 15.9652 15.7774 15.9652C16.0591 15.9652 16.7165 15.6365 16.8104 15.2139C16.9513 14.8852 16.9513 14.5096 16.9513 14.4626C16.9043 14.4157 16.8104 14.3217 16.6696 14.2748C16.4817 14.2278 15.7304 13.8052 15.6365 13.7583C15.4957 13.7113 15.4017 13.7113 15.3078 13.8052C15.167 13.993 14.9322 14.3217 14.7913 14.4626C14.6504 14.6035 14.6035 14.6035 14.4626 14.5096C14.2748 14.4626 13.8052 14.2748 13.2417 13.7583C12.7722 13.3826 12.4904 12.8191 12.3965 12.6783C12.2557 12.4904 12.3965 12.4435 12.4435 12.3965C12.4904 12.3496 12.6313 12.2087 12.6783 12.1617C12.7252 12.0209 12.8191 11.9739 12.8661 11.927C12.913 11.7861 12.8661 11.7391 12.8661 11.6452C12.8191 11.5983 12.5374 10.8 12.3965 10.4713C12.2557 10.2365 12.1617 10.1896 12.0678 10.1896H11.88V10.2835L11.7861 10.2365ZM13.6174 18.8765C12.6783 18.8765 11.6922 18.6417 10.8939 18.1722L10.7061 18.0313L8.21739 18.6417L8.73391 16.2L8.59304 16.0122C8.07652 15.167 7.79478 14.1809 7.79478 13.1948C7.79478 10.0487 10.3304 7.56 13.5235 7.56C15.0261 7.56 16.4817 8.17043 17.5148 9.25043C18.5948 10.3304 19.2052 11.7391 19.2052 13.2417C19.2052 16.3878 16.6696 18.8765 13.4765 18.8765H13.6174Z" fill="white"/>
</svg>
