<svg width="15" height="15" viewBox="0 0 15 15" fill="none" xmlns="http://www.w3.org/2000/svg">
<path fill-rule="evenodd" clip-rule="evenodd" d="M12.3602 2.45215C11.0924 1.18433 9.40196 0.47998 7.61761 0.47998C5.83327 0.47998 4.14283 1.18433 2.87501 2.45215C1.60718 3.71998 0.902832 5.41041 0.902832 7.19476C0.902832 8.27476 1.18457 9.40172 1.70109 10.3878L0.902832 14.0504L4.6124 13.2052C5.55153 13.6748 6.58457 13.9095 7.61761 13.9095C9.40196 13.9095 11.0924 13.2052 12.3602 11.9374C13.628 10.6695 14.3324 8.97911 14.3324 7.19476C14.3324 5.41041 13.628 3.71998 12.3133 2.45215L12.3602 2.49911H12.4072L12.3602 2.45215ZM5.78631 4.2365H5.50457C5.3637 4.2365 5.22283 4.28346 5.12892 4.42433C4.98805 4.61215 4.6124 4.94085 4.6124 5.69215C4.6124 6.44346 5.22283 7.19476 5.26979 7.28868C5.31674 7.42954 6.30283 9.02607 7.94631 9.58954C9.26109 10.1061 9.49588 9.9652 9.77761 9.9652C10.0594 9.9652 10.7167 9.6365 10.8107 9.21389C10.9515 8.8852 10.9515 8.50954 10.9515 8.46259C10.9046 8.41563 10.8107 8.32172 10.6698 8.27476C10.482 8.22781 9.73066 7.8052 9.63674 7.75824C9.49587 7.71128 9.40196 7.71128 9.30805 7.8052C9.16718 7.99302 8.9324 8.32172 8.79153 8.46259C8.65066 8.60346 8.6037 8.60346 8.46283 8.50954C8.275 8.46259 7.80544 8.27476 7.24196 7.75824C6.7724 7.38259 6.49066 6.81911 6.39675 6.67824C6.25588 6.49041 6.39674 6.44346 6.4437 6.3965C6.49066 6.34955 6.63153 6.20867 6.67848 6.16172C6.72544 6.02085 6.81935 5.97389 6.86631 5.92694C6.91327 5.78607 6.86631 5.73911 6.86631 5.6452C6.81935 5.59824 6.53761 4.79998 6.39675 4.47128C6.25588 4.2365 6.16196 4.18955 6.06805 4.18955H5.88022V4.28346L5.78631 4.2365ZM7.61761 12.8765C6.67848 12.8765 5.6924 12.6417 4.89414 12.1722L4.70631 12.0313L2.21761 12.6417L2.73414 10.2L2.59327 10.0122C2.07675 9.16694 1.79501 8.18085 1.79501 7.19476C1.79501 4.04868 4.33066 1.55998 7.5237 1.55998C9.02631 1.55998 10.482 2.17041 11.515 3.25041C12.595 4.33041 13.2054 5.73911 13.2054 7.24172C13.2054 10.3878 10.6698 12.8765 7.47674 12.8765H7.61761Z" fill="white"/>
</svg>
