<svg width="43" height="45" viewBox="0 0 43 45" fill="none" xmlns="http://www.w3.org/2000/svg">
<g clip-path="url(#clip0_6_1111)">
<path fill-rule="evenodd" clip-rule="evenodd" d="M9.70883 18.3978H13.1841C14.1771 18.3978 14.9218 17.652 14.9218 16.6575V13.3011C14.9218 12.3066 14.1771 11.5608 13.1841 11.5608H9.70883C8.71589 11.5608 7.97118 12.3066 7.97118 13.3011V16.6575C7.97118 17.5276 8.71589 18.3978 9.70883 18.3978ZM9.83295 13.3011H13.1841V16.5332H9.83295V13.3011Z" fill="#FCFDFF"/>
<path fill-rule="evenodd" clip-rule="evenodd" d="M40.2418 24.6132C39.8694 24.6132 39.3729 24.7375 39.0006 24.8618C38.7523 23.8674 38.0076 23.3701 37.1388 23.1215V4.22648C37.1388 1.98891 35.2771 0.124268 33.0429 0.124268H4.24765C2.01354 0.124268 0.151774 1.98891 0.151774 4.22648V6.58836C0.151774 7.70714 1.0206 8.57731 2.13766 8.57731H3.00648V41.6436C3.00648 42.7624 3.8753 43.6326 4.99236 43.6326H28.2023C29.6918 44.627 31.4294 45.1243 33.1671 45.1243C34.16 45.1243 35.0288 45 36.0218 44.627C38.0076 43.8812 39.8694 42.3895 41.1106 40.4005C42.4759 38.2873 43.0965 35.6768 43.0965 32.9419V27.5966C43.0965 25.6077 41.7312 24.6132 40.2418 24.6132ZM4.62001 41.5193V8.453H12.6877C13.1841 8.453 13.5565 8.08007 13.5565 7.58283C13.5565 7.08559 13.1841 6.71267 12.6877 6.71267H2.01354C1.88942 6.71267 1.7653 6.58836 1.7653 6.46405V4.10217C1.7653 2.73477 2.88236 1.74029 4.12354 1.74029H29.5676C29.0712 2.36184 28.8229 3.232 28.8229 4.10217V6.46405C28.8229 6.58836 28.6988 6.71267 28.5747 6.71267H20.5071C20.0106 6.71267 19.6382 7.08559 19.6382 7.58283C19.6382 8.08007 20.0106 8.453 20.5071 8.453H28.5747C29.6918 8.453 30.5606 7.58283 30.5606 6.46405V4.10217C30.5606 2.73477 31.6776 1.74029 32.9188 1.74029C34.2841 1.74029 35.277 2.85907 35.277 4.10217V22.9972C35.1529 22.9972 35.0288 23.1215 34.9047 23.1215C34.5323 21.8784 33.4153 21.1326 32.1741 21.1326C31.8018 21.1326 31.4294 21.2569 31.0571 21.3812V16.4088C31.0571 14.4198 29.6918 13.4254 28.2023 13.4254C26.8371 13.4254 25.3476 14.4198 25.3476 16.4088V29.0884C25.3476 29.4613 25.3476 29.8342 25.3476 30.2071V30.3314L23.3618 28.0939C22.1206 26.8508 20.5071 26.7265 19.1418 27.721C17.9006 28.8397 17.28 30.953 18.7694 32.6933L24.8512 40.5248C25.0994 40.8977 25.4718 41.2707 25.72 41.5193H4.62001C4.49589 41.5193 4.37177 41.395 4.37177 41.2707L4.62001 41.5193ZM41.2347 32.9419C41.2347 37.79 38.8765 41.6436 35.277 42.8867C32.1741 44.0055 28.8229 42.7624 26.4647 39.6547L20.3829 31.8232C19.6382 30.8287 19.8865 29.8342 20.6312 29.2127C20.7553 29.0884 21.0035 28.8397 21.3759 28.8397C21.6241 28.8397 21.9965 28.964 22.3688 29.337L24.4788 31.5745C25.0994 32.1961 25.8441 33.0663 26.7129 32.6933C27.3335 32.4447 27.4576 31.6989 27.4576 31.4502C27.4576 31.0773 27.4576 30.7044 27.4576 30.2071C27.4576 29.8342 27.4576 29.5856 27.4576 29.2127V16.5331C27.4576 15.4143 28.3265 15.29 28.5747 15.29C28.6988 15.29 29.6918 15.29 29.6918 16.5331V29.0884C29.6918 29.5856 30.0641 29.9585 30.5606 29.9585C31.0571 29.9585 31.4294 29.5856 31.4294 29.0884V24.2403C31.4294 23.1215 32.2982 22.9972 32.5465 22.9972C32.7947 22.9972 33.0429 23.1215 33.2912 23.2458C33.5394 23.4944 33.6635 23.7431 33.6635 24.116V28.964C33.6635 29.4613 34.0359 29.8342 34.5323 29.8342C35.0288 29.8342 35.4012 29.4613 35.4012 28.964V25.732C35.4012 24.6132 36.27 24.4889 36.5182 24.4889C36.7665 24.4889 37.0147 24.6132 37.2629 24.7375C37.5112 24.9861 37.6353 25.2348 37.6353 25.6077V28.8397C37.6353 29.337 38.0076 29.7099 38.5041 29.7099C39.0006 29.7099 39.3729 29.337 39.3729 28.8397V27.2237C39.3729 26.1049 40.2418 25.9806 40.49 25.9806C40.7382 25.9806 40.9865 26.1049 41.2347 26.2292C41.4829 26.4779 41.607 26.7265 41.607 27.0994V32.4447L41.2347 32.9419Z" fill="#FCFDFF"/>
<path fill-rule="evenodd" clip-rule="evenodd" d="M16.7835 12.5552C16.7835 13.0525 17.1559 13.4254 17.6524 13.4254H24.7271C25.2235 13.4254 25.5959 13.0525 25.5959 12.5552C25.5959 12.058 25.2235 11.6851 24.7271 11.6851H17.6524C17.1559 11.6851 16.7835 12.058 16.7835 12.5552Z" fill="#FCFDFF"/>
<path fill-rule="evenodd" clip-rule="evenodd" d="M23.1135 16.6575H17.5282C17.0318 16.6575 16.6594 17.0304 16.6594 17.5276C16.6594 18.0249 17.0318 18.3978 17.5282 18.3978H23.1135C23.61 18.3978 23.9824 18.0249 23.9824 17.5276C23.9824 17.0304 23.61 16.6575 23.1135 16.6575Z" fill="#FCFDFF"/>
<path fill-rule="evenodd" clip-rule="evenodd" d="M8.96412 23.4945H22.3688C22.8653 23.4945 23.2376 23.1216 23.2376 22.6243C23.2376 22.1271 22.8653 21.7542 22.3688 21.7542H8.96412C8.46765 21.7542 8.0953 22.1271 8.0953 22.6243C8.0953 23.1216 8.46765 23.4945 8.96412 23.4945Z" fill="#FCFDFF"/>
<path fill-rule="evenodd" clip-rule="evenodd" d="M8.96412 28.4668H16.1629C16.6594 28.4668 17.0318 28.0938 17.0318 27.5966C17.0318 27.0994 16.6594 26.7264 16.1629 26.7264H8.96412C8.46765 26.7264 8.0953 27.0994 8.0953 27.5966C8.0953 28.0938 8.46765 28.4668 8.96412 28.4668Z" fill="#FCFDFF"/>
<path fill-rule="evenodd" clip-rule="evenodd" d="M8.96412 33.5635H15.2941C15.7906 33.5635 16.1629 33.1905 16.1629 32.6933C16.1629 32.1961 15.7906 31.8231 15.2941 31.8231H8.96412C8.46765 31.8231 8.0953 32.1961 8.0953 32.6933C8.0953 33.1905 8.46765 33.5635 8.96412 33.5635Z" fill="#FCFDFF"/>
<path fill-rule="evenodd" clip-rule="evenodd" d="M18.2729 36.7955H8.96412C8.46765 36.7955 8.0953 37.1685 8.0953 37.6657C8.0953 38.1629 8.46765 38.5359 8.96412 38.5359H18.2729C18.7694 38.5359 19.1418 38.1629 19.1418 37.6657C19.1418 37.1685 18.7694 36.7955 18.2729 36.7955Z" fill="#FCFDFF"/>
<path fill-rule="evenodd" clip-rule="evenodd" d="M16.6594 8.45298C17.1559 8.45298 17.5282 8.08005 17.5282 7.58281C17.5282 7.08557 17.1559 6.71265 16.6594 6.71265C16.1629 6.71265 15.7906 7.08557 15.7906 7.58281C15.7906 8.08005 16.1629 8.45298 16.6594 8.45298Z" fill="#FCFDFF"/>
</g>
<defs>
<clipPath id="clip0_6_1111">
<rect width="43" height="45" fill="white"/>
</clipPath>
</defs>
</svg>
