<svg width="46" height="39" viewBox="0 0 46 39" fill="none" xmlns="http://www.w3.org/2000/svg">
<g clip-path="url(#clip0_6_1099)">
<path fill-rule="evenodd" clip-rule="evenodd" d="M41.7647 0.00146484C39.5294 0.00146484 37.6471 1.89223 37.6471 4.13751V8.5099H28.7059V4.13751C28.7059 2.83761 29.7647 1.77406 31.0588 1.77406C32.3529 1.77406 33.4118 2.83761 33.4118 4.13751V5.20106C33.4118 5.67375 33.7647 6.14644 34.3529 6.14644C34.8235 6.14644 35.2941 5.79193 35.2941 5.20106V4.13751C35.2941 1.89223 33.4118 0.00146484 31.1765 0.00146484C28.9412 0.00146484 27.0588 1.89223 27.0588 4.13751V24.345C26.5882 24.345 26.1176 24.1087 25.6471 23.8723C24.1176 22.6906 22 22.6906 20.4706 23.8723C19.6471 24.5814 18.4706 24.5814 17.5294 23.8723C16 22.6906 13.8824 22.6906 12.3529 23.8723C11.5294 24.5814 10.3529 24.5814 9.41177 23.8723C7.88235 22.6906 5.76471 22.6906 4.23529 23.8723C3.41177 24.5814 2.23529 24.5814 1.29412 23.8723C0.941177 23.5178 0.352941 23.636 2.5332e-07 23.9905C-0.352941 24.345 -0.235294 24.9359 0.117647 25.2904C1.64706 26.4721 3.76471 26.4721 5.29412 25.2904C6.11765 24.5814 7.29412 24.5814 8.23529 25.2904C9.76471 26.4721 11.8824 26.4721 13.4118 25.2904C14.2353 24.5814 15.4118 24.5814 16.3529 25.2904C17.8824 26.4721 20 26.4721 21.5294 25.2904C22.3529 24.5814 23.5294 24.5814 24.4706 25.2904C25.1765 25.8813 26.1176 26.2358 27.0588 26.2358C28 26.2358 28.8235 25.8813 29.6471 25.2904C30.4706 24.5814 31.6471 24.5814 32.5882 25.2904C34.1176 26.4721 36.2353 26.4721 37.7647 25.2904C38.5882 24.5814 39.7647 24.5814 40.7059 25.2904C42.2353 26.4721 44.3529 26.4721 45.8824 25.2904C46.2353 24.9359 46.3529 24.4632 46 23.9905C45.6471 23.636 45.1765 23.5178 44.7059 23.8723C43.8824 24.5814 42.7059 24.5814 41.7647 23.8723C41.1765 23.3997 40.3529 23.0451 39.6471 23.0451V4.25568C39.6471 2.95578 40.7059 1.89223 42 1.89223C43.2941 1.89223 44.3529 2.95578 44.3529 4.25568V5.31923C44.3529 5.79193 44.7059 6.26462 45.2941 6.26462C45.7647 6.26462 46.2353 5.9101 46.2353 5.31923V4.25568C46.2353 2.0104 44.3529 0.119638 42.1176 0.119638L41.7647 0.00146484ZM28.7059 15.4821H37.6471V18.6727H28.7059V15.4821ZM37.6471 10.4007V13.5913H28.7059V10.4007H37.6471ZM36.4706 23.8723C35.6471 24.5814 34.4706 24.5814 33.5294 23.8723C32.1176 22.6906 30.1176 22.6906 28.7059 23.636V20.4453H37.6471V23.1633C37.1765 23.2815 36.8235 23.5178 36.4706 23.8723Z" fill="#FCFDFF"/>
<path fill-rule="evenodd" clip-rule="evenodd" d="M44.4706 30.2537C43.6471 30.9628 42.4706 30.9628 41.5294 30.2537C40 29.072 37.8824 29.072 36.3529 30.2537C35.5294 30.9628 34.3529 30.9628 33.4118 30.2537C31.8824 29.072 29.7647 29.072 28.3529 30.2537C27.5294 30.9628 26.3529 30.9628 25.4118 30.2537C23.8824 29.072 21.7647 29.072 20.3529 30.2537C19.5294 30.9628 18.3529 30.9628 17.4118 30.2537C15.8824 29.072 13.7647 29.072 12.2353 30.2537C11.4118 30.9628 10.2353 30.9628 9.29412 30.2537C7.76471 29.072 5.64706 29.072 4.11765 30.2537C3.29412 30.9628 2.11765 30.9628 1.17647 30.2537C0.823531 29.8992 0.235296 30.0174 -0.117645 30.3719C-0.470586 30.7264 -0.352939 31.3173 2.05636e-06 31.6718C1.52941 32.8535 3.64706 32.8535 5.17647 31.6718C6 30.9628 7.17647 30.9628 8.11765 31.6718C9.64706 32.8535 11.7647 32.8535 13.2941 31.6718C14.1176 30.9628 15.2941 30.9628 16.2353 31.6718C17.7647 32.8535 19.8824 32.8535 21.2941 31.6718C22.1176 30.9628 23.2941 30.9628 24.2353 31.6718C24.9412 32.2627 25.8824 32.6172 26.8235 32.6172C27.7647 32.6172 28.5882 32.2627 29.4118 31.6718C30.2353 30.9628 31.4118 30.9628 32.3529 31.6718C33.8824 32.8535 36 32.8535 37.5294 31.6718C38.3529 30.9628 39.5294 30.9628 40.4706 31.6718C42 32.8535 44.1176 32.8535 45.6471 31.6718C46 31.3173 46.1176 30.8446 45.7647 30.3719C45.4118 30.0174 44.9412 29.8992 44.4706 30.2537Z" fill="#FCFDFF"/>
<path fill-rule="evenodd" clip-rule="evenodd" d="M44.4706 36.635C43.6471 37.344 42.4706 37.344 41.5294 36.635C40 35.4532 37.8824 35.4532 36.3529 36.635C35.5294 37.344 34.3529 37.344 33.4118 36.635C31.8824 35.4532 29.7647 35.4532 28.2353 36.635C27.7647 36.9895 27.1765 37.2258 26.5882 37.1076C26.1177 37.1076 25.6471 37.4622 25.6471 37.9349C25.6471 38.4075 26 38.8802 26.4706 38.8802C27.5294 38.9984 28.4706 38.6439 29.2941 38.053C30.1177 37.344 31.2941 37.344 32.1177 38.053C33.6471 39.2348 35.7647 39.2348 37.2941 38.053C38.1177 37.344 39.2941 37.344 40.2353 38.053C40.9412 38.6439 41.8824 38.9984 42.8235 38.9984C43.7647 38.9984 44.5882 38.6439 45.4118 38.053C45.7647 37.6985 45.8824 37.2258 45.5294 36.7531C45.1765 36.3986 44.7059 36.2804 44.2353 36.635H44.4706Z" fill="#FCFDFF"/>
<path fill-rule="evenodd" clip-rule="evenodd" d="M19.1765 37.1076C18.5882 37.1076 18 36.9895 17.5294 36.635C16 35.4532 13.8823 35.4532 12.4706 36.635C11.6471 37.344 10.4706 37.344 9.52941 36.635C8 35.4532 5.88235 35.4532 4.35294 36.635C3.52941 37.344 2.35294 37.344 1.41176 36.635C1.05882 36.2804 0.470587 36.3986 0.117646 36.7531C-0.235296 37.1076 -0.117649 37.6985 0.235293 38.053C0.941175 38.6439 1.88235 38.9984 2.82353 38.9984C3.7647 38.9984 4.58823 38.6439 5.41176 38.053C6.23529 37.344 7.41176 37.344 8.35294 38.053C9.88235 39.2348 12 39.2348 13.5294 38.053C14.3529 37.344 15.5294 37.344 16.4706 38.053C17.2941 38.6439 18.2353 38.9984 19.2941 38.8802C19.7647 38.8802 20.1176 38.4075 20.1176 37.9349C20.1176 37.4622 19.6471 37.1076 19.1765 37.1076Z" fill="#FCFDFF"/>
<path fill-rule="evenodd" clip-rule="evenodd" d="M19.0588 16.1911C18.7059 16.5456 18.8235 17.1365 19.1765 17.491C19.2941 17.6092 19.5294 17.7273 19.7647 17.7273C20 17.7273 20.2353 17.6092 20.4706 17.3728C21.6471 15.8366 21.6471 13.7095 20.4706 12.1732C19.7647 11.346 19.7647 10.1643 20.4706 9.21891C20.8235 8.86439 20.7059 8.27353 20.353 7.91901C20 7.56449 19.4118 7.68267 19.0588 8.03719C17.8824 9.57343 17.8824 11.7005 19.0588 13.2368C19.7647 14.064 19.7647 15.2457 19.0588 16.1911Z" fill="#FCFDFF"/>
<path fill-rule="evenodd" clip-rule="evenodd" d="M12.3529 16.1911C12 16.5456 12.1176 17.1365 12.4706 17.491C12.5882 17.6092 12.8235 17.7273 13.0588 17.7273C13.2941 17.7273 13.5294 17.6092 13.7647 17.3728C14.9412 15.8366 14.9412 13.7095 13.7647 12.1732C13.0588 11.346 13.0588 10.1643 13.7647 9.21891C14.1176 8.86439 14 8.27353 13.6471 7.91901C13.2941 7.56449 12.7059 7.68267 12.3529 8.03719C11.1765 9.57343 11.1765 11.7005 12.3529 13.2368C13.0588 14.064 13.0588 15.2457 12.3529 16.1911Z" fill="#FCFDFF"/>
<path fill-rule="evenodd" clip-rule="evenodd" d="M5.76471 16.1911C5.41177 16.5456 5.52941 17.1365 5.88235 17.491C6 17.6092 6.2353 17.7273 6.47059 17.7273C6.70588 17.7273 6.94118 17.6092 7.17647 17.3728C8.35294 15.8366 8.35294 13.7095 7.17647 12.1732C6.47059 11.346 6.47059 10.1643 7.17647 9.21891C7.52941 8.86439 7.41177 8.27353 7.05883 7.91901C6.70588 7.56449 6.11765 7.68267 5.76471 8.03719C4.58824 9.57343 4.58824 11.7005 5.76471 13.2368C6.47059 14.064 6.47059 15.2457 5.76471 16.1911Z" fill="#FCFDFF"/>
<path fill-rule="evenodd" clip-rule="evenodd" d="M22.9412 35.6896C22.7059 35.6896 22.4706 35.8077 22.3529 35.9259C22.2353 36.0441 22.1176 36.2804 22.1176 36.5168C22.1176 36.7531 22.2353 36.9895 22.3529 37.1076C22.4706 37.2258 22.7059 37.344 22.9412 37.344C23.1765 37.344 23.4118 37.2258 23.5294 37.1076C23.6471 36.9895 23.7647 36.7531 23.7647 36.5168C23.7647 36.2804 23.6471 36.0441 23.5294 35.9259C23.4118 35.8077 23.1765 35.6896 22.9412 35.6896Z" fill="#FCFDFF"/>
</g>
<defs>
<clipPath id="clip0_6_1099">
<rect width="46" height="39" fill="white"/>
</clipPath>
</defs>
</svg>
