<svg width="142" height="20" viewBox="0 0 142 20" fill="none" xmlns="http://www.w3.org/2000/svg">
<path fill-rule="evenodd" clip-rule="evenodd" d="M6.04034 16.0017L13.1509 13.7456C15.7207 13.0313 18.2135 12.4564 20.8934 11.9468C26.4669 10.8884 32.472 10.3745 38.3538 10.4464C44.1233 10.5182 50.0249 11.1476 55.4597 12.3083C62.5262 13.8174 64.0434 14.7321 70.1718 16.5417C88.9469 22.0796 108.391 20.9581 126.404 13.2186L131.19 10.9472C131.643 10.7164 132.357 10.2591 132.733 10.1262C126.995 12.2408 124.715 13.31 118.36 14.8279C101.199 18.9241 84.4238 17.7743 68.1679 12.3344C65.7853 11.5374 63.5744 10.6271 61.1168 9.86056C44.1519 4.56439 24.8572 6.33486 9.12326 14.3118C8.13012 14.8148 6.82648 15.4333 6.04034 15.9995V16.0017ZM0 16.9446C1.07022 16.3828 2.25054 15.5117 3.38682 14.8257C20.6314 4.40324 42.3969 1.64627 61.8061 8.00516C64.6908 8.95028 67.1902 9.99775 70.0375 10.9625C81.8892 14.9825 95.791 16.4633 109.191 14.6471C117.548 13.5126 127.459 10.6859 134.775 7.02084C136.323 6.24557 140.916 3.96988 141.993 3.08573C140.982 3.40585 139.28 4.31613 138.199 4.80176C122 12.0883 102.791 13.7586 85.4015 9.98686C82.3626 9.32702 79.5241 8.5082 76.6482 7.56962C73.6886 6.60489 71.2971 5.49645 68.4939 4.42284C56.7985 -0.0566902 42.8131 -1.42211 29.6203 1.66152C20.7723 3.72815 13.2808 7.07092 6.26275 11.949C4.92828 12.8767 0.83239 15.8732 0 16.9424L0 16.9446Z" fill="#0072B1"/>
</svg>
